<svg width="74" height="15" viewBox="0 0 74 15" fill="none"
    xmlns="http://www.w3.org/2000/svg">
    <path d="M12.5703 9.99203H13.8169C13.2121 11.3475 12.1828 12.4694 10.8842 13.1883C9.58568 13.9072 8.08846 14.1841 6.61869 13.9771C5.14893 13.7701 3.78643 13.0904 2.73696 12.0408C1.68749 10.9912 1.00805 9.62864 0.801252 8.15884C0.773281 7.82334 0.773281 7.48609 0.801252 7.15059C0.782999 6.8331 0.782999 6.51481 0.801252 6.19732C1.04193 4.57948 1.84713 3.09893 3.07439 2.01765C4.25811 0.971429 5.76912 0.369929 7.34802 0.316407C8.92691 0.262885 10.4752 0.760674 11.727 1.72433C12.7032 2.4786 13.4623 3.47796 13.9269 4.62078H12.6986C12.1675 3.55478 11.3168 2.68118 10.2652 2.1219C9.21372 1.56262 8.01384 1.34555 6.83302 1.50098C5.6522 1.6564 4.54935 2.17657 3.67836 2.9889C2.80738 3.80123 2.21173 4.8652 1.97449 6.03234C1.90156 6.40063 1.8647 6.77515 1.86448 7.15059C1.86189 7.55136 1.90495 7.95111 1.99281 8.34215C2.23634 9.48112 2.82179 10.5186 3.67087 11.3158C4.51995 12.1131 5.59218 12.6321 6.74421 12.8036C7.89624 12.975 9.07314 12.7906 10.1175 12.275C11.162 11.7595 12.0241 10.9374 12.5886 9.91869L12.5703 9.99203Z" fill="#A38025"/>
    <path d="M21.1547 4.54594L21.8147 5.82916L17.5433 14.0602H16.2051L21.1547 4.54594ZM30.3207 14.0602H28.9824L23.8312 4.16096L22.6029 1.81448L23.2812 0.53125L24.1061 2.14446L30.3207 14.0602Z" fill="#A38025"/>
    <path d="M44.5317 3.84993C44.5381 4.7063 44.2167 5.53267 43.6334 6.15974C43.0472 6.78433 42.2505 7.16967 41.3969 7.24134H34.9991V14.0425H33.8809V6.10474H41.2136C41.5122 6.10474 41.8077 6.04594 42.0835 5.93171C42.3593 5.81747 42.6099 5.65003 42.821 5.43895C43.0321 5.22787 43.1995 4.97728 43.3137 4.70149C43.428 4.4257 43.4868 4.13012 43.4868 3.83161C43.4868 3.53309 43.428 3.23749 43.3137 2.9617C43.1995 2.68591 43.0321 2.43532 42.821 2.22424C42.6099 2.01316 42.3593 1.84572 42.0835 1.73148C41.8077 1.61724 41.5122 1.55844 41.2136 1.55844H34.9991V4.87651L34.4308 5.16983L33.8809 5.44479V0.421875H41.4153C42.2726 0.491533 43.0715 0.88435 43.6501 1.52082C44.2287 2.15729 44.5438 2.98985 44.5317 3.84993Z" fill="#A38025"/>
    <path d="M47.3042 1.57797V0.441406H59.3483V1.57797H47.3042ZM52.6571 14.062V3.61282H53.7754V14.062H52.6571Z" fill="#A38025"/>
    <path d="M73.9999 13.0186V14.1368H63.624V0.40625H64.7422V13.0186H73.9999Z" fill="#A38025"/>
</svg>
