<svg width="32" height="36" viewBox="0 0 32 36" fill="none" xmlns="http://www.w3.org/2000/svg">
<path fill-rule="evenodd" clip-rule="evenodd" d="M22.4309 0.602407C25.9853 1.55042 29.1596 3.57434 31.5188 6.39683L30.1083 7.57577C27.9923 5.0442 25.1452 3.2289 21.9572 2.3786C18.7692 1.52831 15.3962 1.68462 12.3005 2.82613C9.20478 3.96764 6.53779 6.03849 4.66496 8.75492C2.79214 11.4713 1.80511 14.7004 1.83914 17.9997C1.87316 21.299 2.92658 24.5071 4.85503 27.1843C6.78348 29.8615 9.49261 31.8769 12.6112 32.9543C15.7298 34.0318 19.1053 34.1185 22.2751 33.2026C25.4449 32.2868 28.2539 30.4131 30.3173 27.8384L31.7518 28.9881C29.4513 31.8586 26.3194 33.9476 22.7853 34.9687C19.2513 35.9898 15.4879 35.8931 12.0109 34.6919C8.53395 33.4906 5.51348 31.2436 3.36342 28.2587C1.21335 25.2738 0.0388848 21.6971 0.000948841 18.0187C-0.0369871 14.3403 1.06346 10.7401 3.15151 7.71148C5.23956 4.68288 8.21304 2.37406 11.6645 1.10137C15.116 -0.171323 18.8765 -0.345603 22.4309 0.602407ZM19.4559 5.94487H17.8346C17.047 8.36042 14.422 11.0444 8.64695 10.5076V11.8495C12.5845 12.1179 16.7845 11.0444 17.8346 8.62881V15.1326C17.047 17.5481 14.422 20.2321 8.64695 19.6953V21.0372C12.5845 21.3056 16.7845 20.2321 17.8346 17.8165V30.265H19.4559V5.94487ZM28.6436 21.0372V19.6953C22.8686 20.2321 20.2435 17.5481 19.456 15.1326V17.8165C20.506 20.2321 24.7061 21.3056 28.6436 21.0372ZM28.6436 11.8495V10.5076C22.8686 11.0444 20.2435 8.36042 19.456 5.94487V8.62881C20.506 11.0444 24.7061 12.1179 28.6436 11.8495Z" fill="url(#paint0_radial)"/>
<defs>
<radialGradient id="paint0_radial" cx="0" cy="0" r="1" gradientUnits="userSpaceOnUse" gradientTransform="translate(6.12561 5.76505) rotate(50.6892) scale(31.9675 28.688)">
<stop stop-color="#F7F191"/>
<stop offset="0.364583" stop-color="#B2902E"/>
<stop offset="0.640625" stop-color="#906A18"/>
<stop offset="1" stop-color="#83580B"/>
</radialGradient>
</defs>
</svg>

