<svg width="13" height="12" viewBox="0 0 13 12" fill="none" xmlns="http://www.w3.org/2000/svg">
<path d="M11.6774 5.80078H5.32754C5.14256 5.80078 4.99121 5.95213 4.99121 6.13711C4.99121 6.32209 5.14256 6.47344 5.32754 6.47344H11.6774C11.8624 6.47344 12.0137 6.32209 12.0137 6.13711C12.0137 5.95213 11.8624 5.80078 11.6774 5.80078Z" fill="#A38025"/>
<path d="M2.23993 4.71875H2.13903C1.35539 4.71875 0.719727 5.35441 0.719727 6.13805C0.719727 6.9217 1.35539 7.55736 2.13903 7.55736H2.23993C3.02357 7.55736 3.65923 6.9217 3.65923 6.13805C3.6626 5.35441 3.02694 4.71875 2.23993 4.71875Z" fill="#A38025"/>
<path d="M11.6774 1.76562H5.32754C5.14256 1.76562 4.99121 1.91697 4.99121 2.10195C4.99121 2.28693 5.14256 2.43828 5.32754 2.43828H11.6774C11.8624 2.43828 12.0137 2.28693 12.0137 2.10195C12.0137 1.91697 11.8624 1.76562 11.6774 1.76562Z" fill="#A38025"/>
<path d="M2.23993 0.683594H2.13903C1.35539 0.683594 0.719727 1.31925 0.719727 2.1029C0.719727 2.88654 1.35539 3.5222 2.13903 3.5222H2.23993C3.02357 3.5222 3.65923 2.88654 3.65923 2.1029C3.6626 1.31925 3.02694 0.683594 2.23993 0.683594Z" fill="#A38025"/>
<path d="M11.6774 9.83984H5.32754C5.14256 9.83984 4.99121 9.99119 4.99121 10.1762C4.99121 10.3612 5.14256 10.5125 5.32754 10.5125H11.6774C11.8624 10.5125 12.0137 10.3612 12.0137 10.1762C12.0137 9.99119 11.8624 9.83984 11.6774 9.83984Z" fill="#A38025"/>
<path d="M2.23993 8.75391H2.13903C1.35539 8.75391 0.719727 9.38957 0.719727 10.1732C0.719727 10.9569 1.35539 11.5925 2.13903 11.5925H2.23993C3.02357 11.5925 3.65923 10.9569 3.65923 10.1732C3.6626 9.38957 3.02694 8.75391 2.23993 8.75391Z" fill="#A38025"/>
</svg>
