<svg width="12" height="12" viewBox="0 0 12 12" fill="none" xmlns="http://www.w3.org/2000/svg">
<path d="M3.94396 0.683594H2.34991C1.92714 0.683594 1.52169 0.851538 1.22275 1.15048C0.923804 1.44942 0.755859 1.85488 0.755859 2.27765V3.8717C0.755859 4.29447 0.923804 4.69992 1.22275 4.99886C1.52169 5.2978 1.92714 5.46575 2.34991 5.46575H3.94396C4.36673 5.46575 4.77218 5.2978 5.07113 4.99886C5.37007 4.69992 5.53801 4.29447 5.53801 3.8717V2.27765C5.53801 1.85488 5.37007 1.44942 5.07113 1.15048C4.77218 0.851538 4.36673 0.683594 3.94396 0.683594ZM4.47531 3.8717C4.47531 4.01262 4.41933 4.14777 4.31968 4.24742C4.22004 4.34707 4.08489 4.40305 3.94396 4.40305H2.34991C2.20899 4.40305 2.07384 4.34707 1.97419 4.24742C1.87454 4.14777 1.81856 4.01262 1.81856 3.8717V2.27765C1.81856 2.13672 1.87454 2.00157 1.97419 1.90192C2.07384 1.80228 2.20899 1.74629 2.34991 1.74629H3.94396C4.08489 1.74629 4.22004 1.80228 4.31968 1.90192C4.41933 2.00157 4.47531 2.13672 4.47531 2.27765V3.8717ZM3.94396 6.52845H2.34991C1.92714 6.52845 1.52169 6.69639 1.22275 6.99534C0.923804 7.29428 0.755859 7.69973 0.755859 8.1225V9.71655C0.755859 10.1393 0.923804 10.5448 1.22275 10.8437C1.52169 11.1427 1.92714 11.3106 2.34991 11.3106H3.94396C4.36673 11.3106 4.77218 11.1427 5.07113 10.8437C5.37007 10.5448 5.53801 10.1393 5.53801 9.71655V8.1225C5.53801 7.69973 5.37007 7.29428 5.07113 6.99534C4.77218 6.69639 4.36673 6.52845 3.94396 6.52845ZM4.47531 9.71655C4.47531 9.85748 4.41933 9.99263 4.31968 10.0923C4.22004 10.1919 4.08489 10.2479 3.94396 10.2479H2.34991C2.20899 10.2479 2.07384 10.1919 1.97419 10.0923C1.87454 9.99263 1.81856 9.85748 1.81856 9.71655V8.1225C1.81856 7.98158 1.87454 7.84643 1.97419 7.74678C2.07384 7.64713 2.20899 7.59115 2.34991 7.59115H3.94396C4.08489 7.59115 4.22004 7.64713 4.31968 7.74678C4.41933 7.84643 4.47531 7.98158 4.47531 8.1225V9.71655ZM9.78882 6.52845H8.19477C7.772 6.52845 7.36654 6.69639 7.0676 6.99534C6.76866 7.29428 6.60071 7.69973 6.60071 8.1225V9.71655C6.60071 10.1393 6.76866 10.5448 7.0676 10.8437C7.36654 11.1427 7.772 11.3106 8.19477 11.3106H9.78882C10.2116 11.3106 10.617 11.1427 10.916 10.8437C11.2149 10.5448 11.3829 10.1393 11.3829 9.71655V8.1225C11.3829 7.69973 11.2149 7.29428 10.916 6.99534C10.617 6.69639 10.2116 6.52845 9.78882 6.52845ZM10.3202 9.71655C10.3202 9.85748 10.2642 9.99263 10.1645 10.0923C10.0649 10.1919 9.92974 10.2479 9.78882 10.2479H8.19477C8.05384 10.2479 7.91869 10.1919 7.81905 10.0923C7.7194 9.99263 7.66342 9.85748 7.66342 9.71655V8.1225C7.66342 7.98158 7.7194 7.84643 7.81905 7.74678C7.91869 7.64713 8.05384 7.59115 8.19477 7.59115H9.78882C9.92974 7.59115 10.0649 7.64713 10.1645 7.74678C10.2642 7.84643 10.3202 7.98158 10.3202 8.1225V9.71655ZM9.78882 0.683594H8.19477C7.772 0.683594 7.36654 0.851538 7.0676 1.15048C6.76866 1.44942 6.60071 1.85488 6.60071 2.27765V3.8717C6.60071 4.29447 6.76866 4.69992 7.0676 4.99886C7.36654 5.2978 7.772 5.46575 8.19477 5.46575H9.78882C10.2116 5.46575 10.617 5.2978 10.916 4.99886C11.2149 4.69992 11.3829 4.29447 11.3829 3.8717V2.27765C11.3829 1.85488 11.2149 1.44942 10.916 1.15048C10.617 0.851538 10.2116 0.683594 9.78882 0.683594ZM10.3202 3.8717C10.3202 4.01262 10.2642 4.14777 10.1645 4.24742C10.0649 4.34707 9.92974 4.40305 9.78882 4.40305H8.19477C8.05384 4.40305 7.91869 4.34707 7.81905 4.24742C7.7194 4.14777 7.66342 4.01262 7.66342 3.8717V2.27765C7.66342 2.13672 7.7194 2.00157 7.81905 1.90192C7.91869 1.80228 8.05384 1.74629 8.19477 1.74629H9.78882C9.92974 1.74629 10.0649 1.80228 10.1645 1.90192C10.2642 2.00157 10.3202 2.13672 10.3202 2.27765V3.8717Z" fill="#85919F"/>
</svg>
